<?xml version="1.0" standalone="no"?>
<!DOCTYPE svg PUBLIC "-//W3C//DTD SVG 20010904//EN"
 "http://www.w3.org/TR/2001/REC-SVG-20010904/DTD/svg10.dtd">
<svg version="1.0" xmlns="http://www.w3.org/2000/svg"
 width="1758.000000pt" height="1758.000000pt" viewBox="0 0 1758.000000 1758.000000"
 preserveAspectRatio="xMidYMid meet">
<metadata>
Created by potrace 1.14, written by Peter Selinger 2001-2017
</metadata>
<g transform="translate(0.000000,1758.000000) scale(0.100000,-0.100000)"
fill="#000000" stroke="none">
<path d="M9559 15413 c-74 -24 -149 -108 -149 -167 0 -9 -8 -16 -17 -17 -10
-1 -29 -2 -43 -4 -14 -1 -61 -6 -105 -10 -44 -5 -255 -9 -470 -10 -336 -2
-557 -8 -695 -20 -19 -1 -75 -6 -125 -10 -49 -4 -103 -9 -120 -11 -16 -2 -74
-8 -128 -14 l-99 -11 -36 37 c-44 45 -92 66 -152 66 -86 -1 -156 -46 -191
-122 l-21 -48 -132 -26 c-72 -14 -162 -33 -201 -42 -38 -8 -77 -17 -85 -19
-24 -5 -208 -53 -285 -74 -82 -22 -347 -105 -423 -131 l-52 -19 -25 25 c-115
115 -323 43 -354 -121 -5 -25 -10 -47 -12 -48 -2 -2 -24 -12 -49 -22 -25 -10
-78 -34 -118 -52 -41 -18 -75 -33 -77 -33 -9 0 -145 -64 -310 -146 -532 -264
-999 -553 -1453 -901 l-123 -95 -40 16 c-140 56 -292 -33 -300 -176 -1 -18 1
-51 5 -73 7 -40 6 -41 -56 -94 -198 -169 -552 -521 -759 -756 -24 -27 -46 -52
-50 -55 -3 -3 -29 -34 -58 -70 -30 -36 -57 -67 -60 -70 -8 -7 -148 -183 -186
-235 -16 -22 -32 -42 -35 -45 -13 -12 -155 -217 -254 -370 -146 -224 -137
-213 -182 -223 -112 -23 -185 -139 -161 -254 8 -40 6 -46 -71 -175 -123 -206
-202 -346 -202 -357 0 -5 -3 -11 -7 -13 -5 -1 -21 -28 -36 -58 -84 -163 -91
-172 -142 -197 -54 -26 -88 -60 -111 -112 -18 -40 -20 -114 -5 -154 9 -23 4
-40 -33 -119 -24 -51 -67 -149 -96 -218 -29 -69 -58 -138 -66 -155 -70 -155
-218 -608 -278 -850 -13 -55 -34 -121 -45 -147 -21 -46 -22 -46 -70 -46 -188
-2 -280 -235 -144 -364 36 -35 102 -67 126 -62 16 3 18 -2 13 -39 -28 -216
-29 -707 -1 -873 2 -16 12 -76 21 -134 31 -205 132 -566 184 -658 5 -9 21 -45
35 -79 13 -34 36 -82 50 -107 23 -42 24 -45 7 -50 -33 -11 -84 -74 -102 -126
-30 -88 -1 -176 77 -236 65 -50 170 -53 240 -7 13 9 25 14 26 12 43 -63 189
-232 277 -319 227 -227 417 -371 700 -533 97 -55 267 -135 398 -187 l147 -59
2 -41 c4 -80 61 -164 132 -192 40 -16 113 -17 147 -3 l31 13 75 -97 c41 -53
101 -132 134 -176 32 -44 61 -82 64 -85 3 -3 40 -48 82 -100 42 -52 88 -108
102 -123 37 -42 78 -94 133 -167 l49 -64 -23 -43 c-62 -110 2 -264 126 -302
48 -14 113 -6 168 20 l41 20 194 -151 c106 -83 200 -156 208 -163 8 -7 85 -66
170 -131 85 -66 159 -123 163 -127 5 -4 4 -17 -3 -29 -6 -12 -11 -45 -11 -74
0 -180 212 -278 349 -160 22 18 45 47 52 64 l13 31 66 -6 c36 -4 77 -8 91 -10
14 -3 50 -7 80 -10 30 -2 75 -7 100 -10 98 -13 117 -15 165 -20 28 -3 66 -7
85 -10 19 -3 60 -7 90 -10 30 -3 66 -7 80 -10 14 -2 57 -7 95 -10 130 -11 130
-11 144 -63 30 -113 167 -178 282 -134 69 27 128 111 131 186 1 38 2 38 93 51
59 8 98 15 115 20 8 2 31 7 50 10 72 12 345 85 430 115 296 104 577 231 821
370 l115 67 42 -37 c109 -97 277 -62 334 68 23 50 25 120 7 164 -12 29 -11 32
27 66 21 19 73 60 114 90 193 144 444 355 610 512 15 14 74 71 133 128 l106
104 28 -21 c59 -44 175 -32 241 25 67 57 94 172 58 243 -22 41 -21 46 17 84
78 82 283 301 296 317 12 15 18 15 41 4 76 -38 168 -22 239 42 27 24 51 41 53
38 3 -3 18 -7 34 -10 16 -2 54 -9 84 -14 30 -6 75 -12 100 -16 25 -3 70 -9
100 -14 30 -5 84 -12 120 -16 36 -3 72 -7 81 -9 102 -20 727 -28 909 -12 52 5
97 9 100 9 20 1 28 -6 39 -37 16 -45 81 -100 134 -114 127 -31 243 44 265 171
4 23 14 44 22 49 8 4 83 24 165 44 83 20 209 55 280 79 l130 44 32 -38 c41
-47 94 -73 158 -76 128 -6 236 120 215 248 l-7 37 91 47 c50 26 108 58 128 70
21 13 40 24 43 24 6 0 257 161 265 170 3 3 30 23 60 44 119 85 264 204 379
313 l65 61 26 -17 c54 -38 138 -47 201 -23 76 30 131 116 131 204 -1 44 -30
119 -52 133 -15 9 -13 17 15 50 37 45 37 45 92 116 133 171 249 357 359 574
31 61 68 129 82 151 25 41 26 41 80 39 67 -4 117 10 160 42 18 14 43 26 55 28
12 2 47 8 77 15 30 6 66 14 80 16 97 19 388 117 510 171 240 107 470 242 675
395 18 13 210 171 215 177 3 3 49 48 101 99 72 70 104 95 129 98 108 17 177
98 182 211 1 39 11 61 59 132 140 210 250 451 308 674 26 101 36 162 50 312 8
88 6 711 -3 790 -2 22 -7 76 -10 120 -4 44 -11 107 -16 140 -5 33 -12 80 -15
105 -6 43 -31 192 -39 236 -13 63 -47 213 -55 241 -7 25 -6 35 6 45 54 44 73
199 35 274 -26 50 -66 88 -117 109 -22 9 -41 16 -42 16 -15 -4 -23 6 -38 47
-10 26 -28 71 -41 100 -13 29 -24 55 -24 58 0 3 -29 65 -64 137 -96 197 -240
439 -342 574 -21 28 -46 61 -54 74 -78 115 -426 490 -570 614 -146 126 -298
246 -420 331 -37 25 -45 37 -47 64 -3 72 -25 120 -71 160 -68 61 -142 73 -233
40 -38 -14 -35 -15 -204 82 -16 10 -113 59 -215 111 -467 236 -988 435 -1565
598 -115 32 -223 63 -240 69 -16 5 -125 32 -242 61 -168 41 -214 55 -218 69
-16 50 -116 110 -184 110 -36 0 -104 -22 -124 -41 -16 -15 -25 -15 -81 -3 -35
7 -75 15 -89 18 -15 2 -62 11 -104 19 -162 31 -498 89 -588 102 -23 3 -50 7
-60 9 -33 6 -98 16 -130 20 -16 3 -115 16 -220 30 -104 15 -212 29 -240 32
-27 3 -57 7 -65 9 -8 2 -46 7 -85 10 -38 4 -77 8 -85 10 -8 2 -46 7 -85 10
-38 4 -137 20 -220 37 -82 16 -160 32 -172 34 -50 9 -300 59 -340 69 -16 4
-23 13 -23 29 0 35 -24 87 -57 121 -41 44 -61 53 -148 69 -11 2 -41 -3 -66
-11z"/>
</g>
</svg>
